# xmcd
#
# Track frame offsets:
#	150
#	16442
#	36634
#	51284
#	67597
#	90298
#	105885
#	126237
#	144259
#	161170
#	177986
#	191796
#	210107
#	233519
#	246523
#	272352
#
# Disc length: 3891 seconds
#
# Revision: 0
# Processed by: cddbd v1.5.2PL0 Copyright (c) Steve Scherf et al.
# Submitted via: audiograbber 1.83.01
#
DISCID=cf0f3110
DTITLE=Jerry Lee Surber - Hey...Guitar
DYEAR=2006
DGENRE=Country
TTITLE0=Educated Redneck
TTITLE1=He Don't Matter To Her No More
TTITLE2=Please Let Go Of My Heart
TTITLE3=Don't Have To Love Me Back
TTITLE4=In His Band
TTITLE5=Caesar
TTITLE6=Down In Mexico
TTITLE7=Mornin' Light
TTITLE8=You Changed Your Heart
TTITLE9=Can't You See?
TTITLE10=This Train Won't Run
TTITLE11=Showdown (at the Lonestar Saloon)
TTITLE12=Ev'ry Town
TTITLE13=Hey----Guitar
TTITLE14=I've Been There
TTITLE15=Hard Luck
EXTD=
EXTT0=
EXTT1=
EXTT2=
EXTT3=
EXTT4=
EXTT5=
EXTT6=
EXTT7=
EXTT8=
EXTT9=
EXTT10=
EXTT11=
EXTT12=
EXTT13=
EXTT14=
EXTT15=
PLAYORDER=
